<?xml version="1.0" encoding="UTF-8"?>
<!-- Generator: Adobe Illustrator 21.1.0, SVG Export Plug-In . SVG Version: 6.00 Build 0)  -->
<svg xmlns="http://www.w3.org/2000/svg" xmlns:xlink="http://www.w3.org/1999/xlink" xmlns:dc="http://purl.org/dc/elements/1.1/" xmlns:cc="http://creativecommons.org/ns#" xmlns:rdf="http://www.w3.org/1999/02/22-rdf-syntax-ns#" version="1.1" id="DESIGNS" x="0px" y="0px" viewBox="0 0 32 32" style="enable-background:new 0 0 32 32;" xml:space="preserve">
<title property="dc:title">to chew</title><desc property="dc:description">An icon for "chew" from the Hatch series on to [icon]. Downloaded from http://www.toicon.com/icons/hatch_chew by 98.247.199.137 on 2020-09-13. Licensed CC-BY, see http://toicon.com/license/ for details.</desc>
<g>
	<path class="hatch_twee" d="M25.774,7.22c0.259,0.221,0.507,0.446,0.737,0.678L20.408,14h-1.414L25.774,7.22z M14.994,14h0.888   h0.236h0.291l7.871-7.871c-0.288-0.178-0.59-0.347-0.906-0.508L14.994,14z M26.996,14c1.157,0,2-0.958,2.004-2.006L26.994,14   H26.996z M22.994,14h1.414l3.854-3.854c-0.172-0.284-0.361-0.563-0.567-0.847L22.994,14z M21.544,4.865   c-0.35-0.118-0.706-0.234-1.084-0.33L10.994,14h1.414L21.544,4.865z M18.268,4.14c-0.421-0.049-0.856-0.085-1.306-0.108L6.994,14   h1.414L18.268,4.14z M12.699,4.296l-9.117,9.117c0.24,0.243,0.546,0.425,0.895,0.519l9.853-9.853   C13.759,4.128,13.22,4.202,12.699,4.296z M8.94,5.468C5.96,6.86,4.19,9.117,3.208,11.114c-0.021,0.043-0.053,0.114-0.071,0.157   L8.94,5.468z M19.994,29h1.414l5-5h-1.414L19.994,29z M25.579,28.829l3.276-3.276l0.073-0.182c0.158-0.396,0.049-0.816-0.22-1.085   l-4.704,4.704C24.535,28.978,25.062,28.937,25.579,28.829z M15.994,29h1.414l5-5h-1.414L15.994,29z M4.788,28.206   c0.292,0.188,0.617,0.335,0.964,0.45L10.408,24H8.994L4.788,28.206z M11.994,29h1.414l5-5h-1.414L11.994,29z M3.229,25.765   l0.403,1.011L6.408,24H4.994L3.229,25.765z M8.003,28.991C8.102,28.994,8.201,29,8.299,29h1.109l5-5h-1.414L8.003,28.991z" style="fill: #FFC5BB;"/>
	<path class="hatch_een" d="M29,17.26c0.131-0.074,0.258-0.152,0.413-0.193c0.555-0.146,0.795-0.57,0.833-0.919   c0.084-0.758-0.551-1.087-1.015-1.327c-0.125-0.064-0.332-0.172-0.459-0.254l-0.035-0.15c0.312-0.225,0.595-0.492,0.806-0.831   c0.552-0.886,0.606-1.975,0.145-2.913C28.302,7.85,24.696,3.1,16.129,3.008l-0.005,0h-0.005h-0.236   C7.304,3.1,3.698,7.85,2.311,10.673C1.85,11.611,1.904,12.7,2.456,13.586c0.208,0.335,0.488,0.599,0.794,0.822l-0.037,0.175   c-0.126,0.085-0.333,0.198-0.457,0.265c-0.462,0.252-1.095,0.596-1,1.351c0.043,0.346,0.286,0.766,0.837,0.906   C2.746,17.144,2.871,17.221,3,17.293V19c0,0.525,0.208,1,0.54,1.357C3.213,20.633,3,21.04,3,21.5v1c0,0.25,0.067,0.482,0.176,0.689   c-0.329,0.15-0.621,0.379-0.83,0.688c-0.373,0.55-0.448,1.247-0.202,1.865l0.593,1.486C3.242,28.492,4.616,30,8.299,30h15.402   c3.682,0,5.057-1.508,5.562-2.772l0.593-1.485c0.247-0.617,0.171-1.314-0.202-1.865c-0.209-0.309-0.501-0.538-0.83-0.688   C28.933,22.982,29,22.75,29,22.5v-1c0-0.46-0.213-0.867-0.54-1.143C28.792,20,29,19.525,29,19V17.26z M3.208,11.114   C4.793,7.89,8.406,4.088,15.882,4.008h0.236c7.476,0.081,11.09,3.882,12.674,7.107C29.446,12.446,28.48,14,26.996,14H5.004   C3.52,14,2.554,12.446,3.208,11.114z M2.839,16.136c-0.5-0.127,1.202-0.631,1.308-1.136h23.699c0.117,0.508,1.818,0.968,1.313,1.1   c-1.548,0.405-1.817,1.904-3.835,1.907c-0.002,0-0.004,0-0.006,0c-2.324,0-2.331-1.993-4.655-1.993c-0.002,0-0.004,0-0.006,0   c-2.33,0.003-2.327,2.003-4.658,2.007c-0.002,0-0.004,0-0.006,0c-2.32,0-2.327-1.993-4.647-1.993c-0.002,0-0.004,0-0.006,0   c-2.328,0.003-2.325,2.003-4.653,2.007c-0.002,0-0.004,0-0.006,0C4.666,18.035,4.395,16.532,2.839,16.136z M27.5,21   c0.276,0,0.5,0.224,0.5,0.5v1c0,0.276-0.224,0.5-0.5,0.5h-23C4.224,23,4,22.776,4,22.5v-1C4,21.224,4.224,21,4.5,21H27.5z M5,20   c-0.552,0-1-0.448-1-1v-0.956c0.6,0.49,1.373,0.991,2.681,0.991c1.542-0.002,2.342-0.692,2.985-1.246   c0.531-0.458,0.882-0.76,1.675-0.761c0.795,0,1.146,0.301,1.678,0.756c0.644,0.551,1.444,1.237,2.974,1.237   c1.543-0.002,2.344-0.692,2.987-1.246c0.532-0.458,0.883-0.76,1.678-0.761c0.797,0,1.149,0.301,1.682,0.757   c0.644,0.551,1.446,1.236,2.977,1.236c1.31-0.002,2.084-0.499,2.682-0.988V19c0,0.552-0.448,1-1,1H5z M28.001,24   c0.706,0,1.189,0.715,0.927,1.371l-0.593,1.486C27.644,28.586,25.559,29,23.701,29H8.299c-1.858,0-3.943-0.414-4.633-2.143   l-0.593-1.486C2.81,24.715,3.293,24,3.999,24H28.001z" style="fill: #265AA5;"/>
</g>
<metadata><work rdf:about=""><format>image/svg+xml</format><type rdf:resource="http://purl.org/dc/dcmitype/StillImage"/><license rdf:resource="http://creativecommons.org/licenses/by/4.0/"/><attributionname>Carol Liao</attributionname><attributionurl>http://www.toicon.com/icons/hatch_chew</attributionurl></work></metadata></svg>
