<?xml version="1.0" encoding="UTF-8"?>
<!-- Generator: Adobe Illustrator 19.2.0, SVG Export Plug-In . SVG Version: 6.00 Build 0)  -->
<!DOCTYPE svg PUBLIC "-//W3C//DTD SVG 1.1//EN" "http://www.w3.org/Graphics/SVG/1.1/DTD/svg11.dtd">
<svg xmlns="http://www.w3.org/2000/svg" xmlns:xlink="http://www.w3.org/1999/xlink" xmlns:dc="http://purl.org/dc/elements/1.1/" xmlns:cc="http://creativecommons.org/ns#" xmlns:rdf="http://www.w3.org/1999/02/22-rdf-syntax-ns#" version="1.1" id="DESIGNS" x="0px" y="0px" width="32px" height="32px" viewBox="0 0 32 32" style="enable-background:new 0 0 32 32;" xml:space="preserve">
<title property="dc:title">to discard</title><desc property="dc:description">An icon for "discard" from the Hatch series on to [icon]. Downloaded from http://www.toicon.com/icons/hatch_discard by 98.247.199.137 on 2020-09-16. Licensed CC-BY, see http://toicon.com/license/ for details.</desc>
<g>
	<path class="hatch_twee" d="M17.745,11.348L20.093,9h1.414L18,12.507V12C18,11.748,17.898,11.524,17.745,11.348z M19.754,2.753   l-0.707-0.707L17.093,4h1.414L19.754,2.753z M18,15.093v1.414l1-1v-1.414L18,15.093z M16.507,2h-1.414l-2,2h1.414L16.507,2z    M8.093,9L7,10.093v1.414L9.507,9H8.093z M9,12.093l-2,2v1.414l2-2V12.093z M11.507,11l2-2h-1.414l-2,2H11.507z M14,24.507v-1.414   l-1,1v1.414L14,24.507z M14,12.507V12c0-0.552,0.448-1,1-1h0.507l2-2h-1.414L13,12.093v1.414L14,12.507z M18,19.093v1.414l1-1   v-1.414L18,19.093z M14,20.507v-1.414l-1,1v1.414L14,20.507z M14,16.507v-1.414l-1,1v1.414L14,16.507z M19,23.507v-1.414l-1,1   v1.414L19,23.507z M23,23.507l2-2v-1.414l-2,2V23.507z M23.507,31L25,29.507v-1.414L22.093,31H23.507z M23,27.507l2-2v-1.414l-2,2   V27.507z M23,19.507l2-2v-1.414l-2,2V19.507z M24.093,9l-2.016,2.016c0.373,0.03,0.689,0.254,0.834,0.58L25,9.507V9H24.093z    M23,15.507l2-2v-1.414l-2,2V15.507z M9.016,28.077L7,30.093V31h0.507l2.089-2.089C9.269,28.766,9.046,28.45,9.016,28.077z    M9,24.093l-2,2v1.414l2-2V24.093z M9,20.093l-2,2v1.414l2-2V20.093z M9,16.093l-2,2v1.414l2-2V16.093z M20.093,29l-2,2h1.414l2-2   H20.093z M14,28v-0.907l-1.023,1.023c-0.055,0.455-0.405,0.805-0.86,0.86L10.093,31h1.414l2.587-2.587   C14.036,28.286,14,28.148,14,28z M19,26.093l-1,1V28c0,0.552-0.448,1-1,1h-0.907l-2,2h1.414L19,27.507V26.093z" style="fill: #DA7638;"/>
	<path class="hatch_een" d="M27,4h-5.009c0-0.26-0.093-0.516-0.284-0.707l-2-2C19.52,1.105,19.265,1,19,1h-6   c-0.265,0-0.52,0.105-0.707,0.293l-2,2C10.102,3.484,10.01,3.74,10.009,4H5C4.448,4,4,4.448,4,5v3c0,0.552,0.448,1,1,1h1v22   c0,0.552,0.448,1,1,1h18c0.552,0,1-0.448,1-1V9h1c0.552,0,1-0.448,1-1V5C28,4.448,27.552,4,27,4z M13,2h6l2,2H11L13,2z M25,31H7V9   h18V31z M27,8H5V5h22V8z M22,28h-2V12h2V28z M20,11c-0.552,0-1,0.448-1,1v16c0,0.552,0.448,1,1,1h2c0.552,0,1-0.448,1-1V12   c0-0.552-0.448-1-1-1H20z M17,28h-2V12h2V28z M15,11c-0.552,0-1,0.448-1,1v16c0,0.552,0.448,1,1,1h2c0.552,0,1-0.448,1-1V12   c0-0.552-0.448-1-1-1H15z M12,28h-2V12h2V28z M10,11c-0.552,0-1,0.448-1,1v16c0,0.552,0.448,1,1,1h2c0.552,0,1-0.448,1-1V12   c0-0.552-0.448-1-1-1H10z" style="fill: #7B2F50;"/>
</g>
<metadata><work rdf:about=""><format>image/svg+xml</format><type rdf:resource="http://purl.org/dc/dcmitype/StillImage"/><license rdf:resource="http://creativecommons.org/licenses/by/4.0/"/><attributionname>Carol Liao</attributionname><attributionurl>http://www.toicon.com/icons/hatch_discard</attributionurl></work></metadata></svg>
